<svg xmlns="http://www.w3.org/2000/svg" width="135.275" height="30" viewBox="0 0 135.275 30">
  <g id="logo" transform="translate(0 0)">
    <g id="Group_770" data-name="Group 770" transform="translate(30.063 8.913)">
      <path id="Path_210" data-name="Path 210" d="M644.385,564.551v-6.6h2.729v6.5c0,2.241.977,3.167,2.628,3.167,1.668,0,2.628-.926,2.628-3.167v-6.5h2.7v6.6c0,3.47-1.988,5.39-5.34,5.39S644.385,568.021,644.385,564.551Z" transform="translate(-644.385 -557.864)" fill="#323232"/>
      <path id="Path_211" data-name="Path 211" d="M713.829,557.948v11.791h-2.24l-5.879-7.159v7.159h-2.7V557.948h2.257l5.862,7.159v-7.159Z" transform="translate(-689.64 -557.864)" fill="#323232"/>
      <path id="Path_212" data-name="Path 212" d="M762.234,564.551v-6.6h2.729v6.5c0,2.241.977,3.167,2.628,3.167,1.668,0,2.628-.926,2.628-3.167v-6.5h2.695v6.6c0,3.47-1.987,5.39-5.34,5.39S762.234,568.021,762.234,564.551Z" transform="translate(-735.35 -557.864)" fill="#323232"/>
      <path id="Path_213" data-name="Path 213" d="M828.375,569.739l-2.274-3.285h-2.51v3.285h-2.729V557.948h5.1c3.15,0,5.121,1.634,5.121,4.279a3.833,3.833,0,0,1-2.425,3.722l2.644,3.79Zm-2.56-9.568h-2.224v4.11h2.224c1.668,0,2.51-.775,2.51-2.055C828.324,560.929,827.482,560.171,825.814,560.171Z" transform="translate(-780.603 -557.864)" fill="#323232"/>
      <path id="Path_214" data-name="Path 214" d="M872.77,567.938l.387-.64a5.609,5.609,0,0,0,3.891,1.482c2.358,0,3.4-1.027,3.4-2.308,0-3.537-7.361-1.415-7.361-5.761,0-1.667,1.28-3.133,4.177-3.133a6.328,6.328,0,0,1,3.554,1.061l-.32.691a5.828,5.828,0,0,0-3.234-.994c-2.291,0-3.318,1.061-3.318,2.358,0,3.537,7.361,1.449,7.361,5.727,0,1.667-1.331,3.116-4.245,3.116A6.045,6.045,0,0,1,872.77,567.938Z" transform="translate(-820.669 -557.578)" fill="#323232"/>
      <path id="Path_215" data-name="Path 215" d="M932.583,557.948v11.791h-.859V564.13h-7.883v5.609h-.859V557.948h.859v5.424h7.883v-5.424Z" transform="translate(-859.427 -557.864)" fill="#323232"/>
      <path id="Path_216" data-name="Path 216" d="M978.139,563.558a6.133,6.133,0,1,1,6.131,5.98A5.9,5.9,0,0,1,978.139,563.558Zm11.387,0a5.265,5.265,0,1,0-5.256,5.188A5.092,5.092,0,0,0,989.526,563.558Z" transform="translate(-902.001 -557.578)" fill="#323232"/>
      <path id="Path_217" data-name="Path 217" d="M1053.941,561.923c0,2.476-1.785,3.958-4.75,3.958h-3.369v3.857h-.859V557.948h4.228C1052.156,557.948,1053.941,559.43,1053.941,561.923Zm-.876,0c0-2.038-1.348-3.2-3.874-3.2h-3.369v6.384h3.369C1051.718,565.107,1053.065,563.944,1053.065,561.923Z" transform="translate(-953.581 -557.864)" fill="#323232"/>
    </g>
    <path id="Path_218" data-name="Path 218" d="M1091.261,597.518a1.634,1.634,0,0,1,3.268,0,1.634,1.634,0,1,1-3.268,0Z" transform="translate(-959.254 -578.325)" fill="#ab0b1b"/>
    <path id="Path_219" data-name="Path 219" d="M525.357,517.426a2.853,2.853,0,0,0-2.816,2.385,1.924,1.924,0,0,1,1.746,1.906v.023a1.926,1.926,0,0,1-1.936,1.916h-9.436a2.416,2.416,0,1,0,0,4.832h5.046a6.328,6.328,0,0,1,4.478,1.84,6.206,6.206,0,0,1,0,8.86,6.329,6.329,0,0,1-4.478,1.84h-9.436a1.926,1.926,0,0,1-1.936-1.916v-.022a1.926,1.926,0,0,1,1.936-1.916h9.436a2.416,2.416,0,1,0,0-4.832h-5.046a6.328,6.328,0,0,1-4.478-1.84,6.206,6.206,0,0,1,0-8.86l.069-.065V520.25a2.847,2.847,0,0,0-2.854-2.824h0a2.847,2.847,0,0,0-2.854,2.824v14.6A12.677,12.677,0,0,0,515.5,547.426h0a12.677,12.677,0,0,0,12.707-12.571v-14.6A2.847,2.847,0,0,0,525.357,517.426Z" transform="translate(-502.798 -517.426)" fill="#ab0b1b"/>
  </g>
</svg>
