<svg id="svg" version="1.1" xmlns="http://www.w3.org/2000/svg" xmlns:xlink="http://www.w3.org/1999/xlink" width="177" height="40" viewBox="0, 0, 400,90" >
<g id="svgg">
<path id="path0" d="M243.774 0.625 C 243.564 1.894,243.672 70.210,243.884 70.833 C 244.197 71.750,244.592 71.814,250.000 71.822 C 252.612 71.826,254.914 71.785,255.115 71.731 C 255.817 71.543,255.833 71.210,255.833 57.210 L 255.833 43.803 256.192 43.513 C 256.465 43.292,256.570 42.985,256.628 42.236 C 256.676 41.617,256.815 41.126,257.001 40.917 C 257.164 40.733,257.351 40.332,257.416 40.024 C 257.481 39.716,257.714 39.199,257.934 38.876 C 258.154 38.552,258.333 38.203,258.333 38.100 C 258.333 37.998,258.483 37.820,258.667 37.705 C 258.850 37.591,259.000 37.415,259.000 37.314 C 259.000 37.214,259.188 36.984,259.417 36.804 C 259.646 36.623,259.833 36.410,259.833 36.329 C 259.833 36.103,260.655 35.333,260.896 35.333 C 261.014 35.333,261.211 35.146,261.333 34.917 C 261.456 34.688,261.652 34.500,261.769 34.500 C 261.886 34.500,262.082 34.355,262.206 34.178 C 262.330 34.002,262.653 33.804,262.924 33.740 C 263.195 33.676,263.567 33.488,263.750 33.324 C 263.933 33.159,264.308 32.972,264.583 32.907 C 264.858 32.842,265.233 32.659,265.417 32.499 C 265.643 32.302,266.178 32.173,267.083 32.099 C 268.116 32.014,268.479 31.915,268.693 31.661 C 269.104 31.174,270.911 31.187,271.310 31.680 C 271.539 31.963,271.845 32.044,272.969 32.121 C 274.052 32.195,274.381 32.278,274.505 32.509 C 274.593 32.674,274.949 32.852,275.316 32.914 C 275.676 32.975,276.100 33.167,276.258 33.342 C 276.416 33.517,276.795 33.707,277.101 33.764 C 277.438 33.828,277.695 33.992,277.756 34.184 C 277.811 34.358,277.944 34.500,278.053 34.501 C 278.303 34.502,280.082 36.207,280.227 36.583 C 280.286 36.738,280.478 36.902,280.653 36.948 C 280.828 36.994,281.017 37.212,281.072 37.432 C 281.128 37.653,281.276 37.833,281.402 37.833 C 281.663 37.833,281.833 38.189,281.833 38.734 C 281.833 38.939,282.021 39.270,282.250 39.469 C 282.518 39.702,282.667 40.006,282.667 40.323 C 282.667 40.610,282.794 40.905,282.974 41.032 C 283.225 41.211,283.299 41.566,283.385 43.000 C 283.473 44.482,283.541 44.792,283.828 45.027 C 284.163 45.301,284.167 45.436,284.167 57.960 C 284.167 71.179,284.186 71.543,284.885 71.731 C 286.007 72.032,294.833 71.833,295.167 71.500 C 295.495 71.171,295.500 70.944,295.500 55.175 C 295.500 38.882,295.480 38.333,294.890 38.333 C 294.730 38.333,294.667 38.070,294.667 37.406 C 294.667 36.413,294.458 35.833,294.101 35.833 C 293.955 35.833,293.847 35.511,293.781 34.879 C 293.724 34.323,293.579 33.848,293.434 33.742 C 293.298 33.642,293.073 33.234,292.935 32.834 C 292.798 32.434,292.568 32.042,292.426 31.962 C 292.283 31.882,292.167 31.672,292.167 31.496 C 292.167 31.319,291.995 31.062,291.785 30.924 C 291.575 30.787,291.307 30.410,291.191 30.087 C 291.074 29.764,290.910 29.500,290.827 29.500 C 290.743 29.500,290.559 29.275,290.417 29.000 C 290.274 28.725,290.056 28.500,289.932 28.500 C 289.807 28.500,289.665 28.344,289.615 28.154 C 289.565 27.964,289.376 27.770,289.194 27.722 C 289.013 27.675,288.825 27.487,288.778 27.306 C 288.730 27.124,288.543 26.936,288.361 26.889 C 288.179 26.841,287.994 26.660,287.948 26.485 C 287.902 26.311,287.752 26.125,287.614 26.072 C 287.477 26.019,286.964 25.608,286.475 25.159 C 285.987 24.710,285.383 24.298,285.134 24.243 C 284.885 24.188,284.636 23.999,284.580 23.822 C 284.523 23.645,284.376 23.500,284.252 23.500 C 284.127 23.500,283.809 23.317,283.543 23.094 C 283.278 22.871,282.841 22.636,282.572 22.572 C 282.303 22.508,281.917 22.305,281.714 22.121 C 281.486 21.914,281.022 21.754,280.505 21.705 C 279.956 21.652,279.667 21.547,279.667 21.401 C 279.667 21.042,279.089 20.833,278.094 20.833 C 277.374 20.833,277.167 20.776,277.167 20.579 C 277.167 20.171,276.426 20.000,274.656 20.000 C 273.248 20.000,272.952 19.952,272.682 19.682 C 272.023 19.023,267.702 18.999,267.155 19.651 C 266.932 19.917,266.597 19.972,264.877 20.023 C 263.100 20.076,262.814 20.126,262.472 20.438 C 262.215 20.673,261.786 20.820,261.203 20.873 C 260.639 20.924,260.190 21.073,259.953 21.289 C 259.750 21.474,259.298 21.676,258.949 21.739 C 258.600 21.801,258.189 21.998,258.037 22.176 C 257.884 22.354,257.632 22.500,257.476 22.500 C 257.320 22.500,256.969 22.688,256.697 22.917 C 256.425 23.146,256.119 23.333,256.018 23.333 C 255.885 23.333,255.833 20.076,255.833 11.667 L 255.833 0.000 249.855 0.000 L 243.877 0.000 243.774 0.625 M205.250 19.288 C 204.975 19.328,204.600 19.495,204.417 19.661 C 204.171 19.883,203.723 19.982,202.707 20.037 C 201.589 20.098,201.258 20.180,200.946 20.473 C 200.735 20.671,200.357 20.833,200.107 20.833 C 199.848 20.833,199.478 21.007,199.250 21.235 C 199.029 21.456,198.625 21.686,198.352 21.746 C 198.079 21.806,197.763 21.967,197.649 22.105 C 197.534 22.243,197.229 22.465,196.970 22.599 C 196.712 22.732,196.500 22.940,196.500 23.061 C 196.500 23.181,196.313 23.365,196.083 23.470 C 195.854 23.574,195.667 23.762,195.667 23.886 C 195.667 24.011,195.479 24.199,195.250 24.303 C 195.021 24.407,194.833 24.602,194.833 24.735 C 194.833 24.868,194.684 25.025,194.500 25.083 C 194.317 25.141,194.122 25.371,194.066 25.594 C 194.010 25.817,193.862 26.000,193.738 26.000 C 193.460 26.000,193.167 26.519,193.167 27.012 C 193.167 27.213,192.979 27.552,192.750 27.765 C 192.488 28.007,192.333 28.332,192.333 28.638 C 192.333 28.958,192.205 29.211,191.961 29.373 C 191.635 29.590,191.580 29.795,191.525 31.008 C 191.472 32.178,191.406 32.439,191.106 32.682 C 190.458 33.206,190.498 37.833,191.156 38.462 C 191.380 38.675,191.479 39.087,191.538 40.046 C 191.599 41.039,191.696 41.429,191.955 41.713 C 192.140 41.917,192.342 42.362,192.403 42.704 C 192.464 43.045,192.647 43.420,192.811 43.537 C 192.975 43.654,193.191 43.988,193.291 44.278 C 193.469 44.793,193.687 45.096,194.458 45.898 C 194.665 46.113,194.833 46.375,194.833 46.481 C 194.833 46.587,195.021 46.759,195.250 46.864 C 195.479 46.968,195.667 47.151,195.667 47.271 C 195.667 47.390,195.835 47.578,196.042 47.687 C 196.248 47.797,196.515 48.024,196.634 48.193 C 196.754 48.362,196.947 48.500,197.064 48.500 C 197.180 48.500,197.448 48.684,197.659 48.908 C 197.869 49.132,198.250 49.362,198.504 49.417 C 198.758 49.473,199.096 49.663,199.256 49.840 C 199.415 50.016,199.817 50.208,200.148 50.267 C 200.479 50.326,200.925 50.534,201.138 50.729 C 201.526 51.083,201.545 51.083,213.881 51.128 C 225.994 51.172,226.242 51.180,226.592 51.508 C 226.809 51.712,227.291 51.883,227.825 51.947 C 230.176 52.225,231.501 56.089,229.819 57.762 C 228.864 58.712,228.744 58.796,228.167 58.920 C 227.846 58.988,227.485 59.185,227.366 59.356 C 227.156 59.655,226.588 59.667,211.689 59.667 C 198.595 59.667,196.181 59.703,195.907 59.903 C 195.359 60.304,195.410 70.818,195.963 71.370 L 196.343 71.750 212.519 71.750 L 228.696 71.750 229.000 71.375 C 229.270 71.042,229.454 71.000,230.657 71.000 C 231.972 71.000,233.167 70.697,233.167 70.363 C 233.167 70.279,233.457 70.163,233.812 70.106 C 234.166 70.049,234.557 69.882,234.680 69.734 C 234.803 69.586,235.082 69.397,235.301 69.314 C 235.520 69.231,235.738 69.014,235.786 68.831 C 235.848 68.593,236.013 68.500,236.375 68.500 C 237.037 68.500,240.000 65.592,240.000 64.943 C 240.000 64.695,240.162 64.432,240.417 64.265 C 240.646 64.115,240.833 63.853,240.833 63.683 C 240.833 63.513,240.987 63.271,241.175 63.145 C 241.428 62.976,241.542 62.668,241.615 61.958 C 241.680 61.323,241.788 61.000,241.934 61.000 C 242.430 61.000,242.500 60.306,242.500 55.420 L 242.500 50.484 242.108 50.117 C 241.836 49.863,241.688 49.495,241.624 48.923 C 241.562 48.362,241.421 48.006,241.183 47.813 C 240.991 47.657,240.833 47.410,240.833 47.264 C 240.833 47.118,240.646 46.835,240.417 46.636 C 240.188 46.436,240.000 46.105,240.000 45.899 C 240.000 45.693,239.827 45.387,239.616 45.220 C 239.405 45.053,239.180 44.778,239.115 44.609 C 239.051 44.440,238.864 44.267,238.701 44.224 C 238.537 44.181,238.331 43.982,238.243 43.782 C 238.155 43.582,237.938 43.391,237.760 43.358 C 237.581 43.324,237.299 43.123,237.132 42.911 C 236.966 42.699,236.609 42.477,236.339 42.418 C 236.064 42.358,235.803 42.169,235.746 41.988 C 235.690 41.811,235.560 41.667,235.456 41.667 C 235.353 41.667,234.988 41.473,234.646 41.236 C 234.304 40.999,233.702 40.762,233.309 40.709 C 232.871 40.650,232.484 40.478,232.311 40.265 C 232.031 39.918,231.975 39.916,219.829 39.872 C 208.211 39.829,207.609 39.812,207.233 39.516 C 207.015 39.345,206.482 39.152,206.048 39.087 C 205.562 39.014,205.174 38.847,205.037 38.651 C 204.915 38.476,204.706 38.333,204.574 38.333 C 204.442 38.333,204.333 38.225,204.333 38.093 C 204.333 37.960,204.184 37.748,204.001 37.620 C 203.819 37.492,203.622 37.154,203.565 36.869 C 203.508 36.584,203.320 36.222,203.148 36.066 C 202.770 35.724,202.743 35.283,203.083 35.001 C 203.220 34.887,203.419 34.503,203.526 34.147 C 203.793 33.254,204.904 32.186,205.696 32.059 C 206.038 32.005,206.446 31.819,206.602 31.647 C 206.875 31.344,207.425 31.333,222.257 31.333 C 236.650 31.333,237.653 31.315,237.989 31.042 C 238.345 30.752,238.347 30.706,238.299 25.381 C 238.244 19.393,238.288 19.609,237.065 19.325 C 236.433 19.179,206.259 19.144,205.250 19.288 M316.619 20.116 C 316.364 20.157,316.065 20.335,315.954 20.512 C 315.796 20.764,315.562 20.833,314.866 20.833 C 313.908 20.833,313.333 21.046,313.333 21.401 C 313.333 21.547,313.044 21.652,312.495 21.705 C 311.972 21.755,311.517 21.913,311.286 22.125 C 311.083 22.311,310.678 22.514,310.387 22.576 C 310.095 22.638,309.763 22.800,309.650 22.937 C 309.536 23.074,309.193 23.290,308.888 23.418 C 308.583 23.545,308.333 23.758,308.333 23.890 C 308.333 24.028,308.104 24.173,307.792 24.233 C 307.481 24.293,306.899 24.660,306.426 25.096 C 305.974 25.514,305.467 25.928,305.301 26.017 C 305.136 26.106,305.000 26.280,305.000 26.403 C 305.000 26.527,304.844 26.668,304.654 26.718 C 304.464 26.768,304.270 26.957,304.222 27.139 C 304.175 27.321,303.987 27.508,303.806 27.556 C 303.624 27.603,303.437 27.788,303.390 27.967 C 303.343 28.146,303.124 28.375,302.903 28.476 C 302.681 28.577,302.500 28.762,302.500 28.886 C 302.500 29.011,302.313 29.199,302.083 29.303 C 301.836 29.416,301.667 29.632,301.667 29.835 C 301.667 30.023,301.555 30.220,301.418 30.272 C 301.282 30.325,301.082 30.660,300.975 31.017 C 300.868 31.374,300.678 31.667,300.553 31.667 C 300.428 31.667,300.238 31.873,300.131 32.125 C 300.024 32.377,299.790 32.750,299.611 32.953 C 299.417 33.173,299.253 33.661,299.205 34.161 C 299.152 34.710,299.047 35.000,298.901 35.000 C 298.597 35.000,298.333 35.538,298.333 36.161 C 298.333 36.455,298.231 36.717,298.095 36.769 C 297.741 36.905,297.500 37.756,297.500 38.873 C 297.500 39.699,297.438 39.914,297.125 40.167 C 296.751 40.470,296.750 40.482,296.750 45.590 L 296.750 50.709 297.125 50.958 C 297.458 51.179,297.500 51.346,297.500 52.448 C 297.500 53.728,297.682 54.333,298.066 54.333 C 298.216 54.333,298.317 54.668,298.381 55.372 C 298.450 56.132,298.565 56.483,298.809 56.680 C 298.992 56.829,299.194 57.226,299.257 57.563 C 299.320 57.899,299.503 58.267,299.664 58.379 C 299.824 58.491,300.010 58.831,300.076 59.133 C 300.142 59.435,300.340 59.772,300.515 59.881 C 300.690 59.991,300.833 60.172,300.833 60.284 C 300.833 60.397,301.058 60.719,301.333 61.000 C 301.608 61.281,301.833 61.575,301.833 61.653 C 301.833 61.731,301.975 61.832,302.149 61.877 C 302.336 61.926,302.511 62.172,302.579 62.481 C 302.642 62.768,302.838 63.080,303.014 63.174 C 303.189 63.268,303.334 63.436,303.335 63.548 C 303.336 63.797,304.642 65.075,305.042 65.218 C 305.202 65.276,305.333 65.392,305.333 65.477 C 305.333 65.561,305.627 65.748,305.987 65.892 C 306.348 66.036,306.688 66.305,306.748 66.493 C 306.807 66.680,306.983 66.833,307.138 66.833 C 307.294 66.833,307.495 67.002,307.585 67.207 C 307.676 67.413,307.899 67.610,308.082 67.644 C 308.264 67.678,308.508 67.842,308.623 68.007 C 308.739 68.172,309.073 68.359,309.365 68.424 C 309.657 68.488,310.014 68.686,310.158 68.864 C 310.309 69.051,310.719 69.228,311.127 69.282 C 311.515 69.335,311.833 69.446,311.833 69.530 C 311.833 69.757,312.912 70.167,313.510 70.167 C 313.848 70.167,314.136 70.298,314.334 70.542 C 314.599 70.869,314.823 70.924,316.110 70.976 C 317.124 71.017,317.624 71.105,317.713 71.261 C 318.186 72.085,326.981 72.085,327.454 71.261 C 327.543 71.105,328.042 71.017,329.056 70.976 C 330.343 70.924,330.568 70.869,330.833 70.542 C 331.031 70.298,331.319 70.167,331.657 70.167 C 332.255 70.167,333.333 69.757,333.333 69.530 C 333.333 69.446,333.651 69.335,334.040 69.282 C 334.448 69.228,334.857 69.051,335.009 68.864 C 335.153 68.686,335.505 68.489,335.791 68.426 C 336.076 68.363,336.406 68.196,336.523 68.055 C 336.640 67.914,336.915 67.731,337.134 67.647 C 337.353 67.564,337.571 67.347,337.619 67.165 C 337.667 66.980,337.846 66.833,338.023 66.833 C 338.200 66.833,338.425 66.649,338.530 66.417 C 338.637 66.182,338.860 66.000,339.042 66.000 C 339.219 66.000,339.725 65.625,340.167 65.167 C 340.608 64.708,341.054 64.333,341.157 64.333 C 341.260 64.333,341.496 64.078,341.680 63.765 C 341.864 63.452,342.117 63.157,342.242 63.109 C 342.367 63.062,342.520 62.788,342.583 62.501 C 342.657 62.166,342.840 61.926,343.099 61.827 C 343.319 61.744,343.500 61.569,343.500 61.440 C 343.500 61.311,343.688 61.082,343.917 60.932 C 344.146 60.782,344.333 60.560,344.333 60.439 C 344.333 60.317,344.479 60.086,344.657 59.925 C 344.835 59.764,345.027 59.424,345.083 59.170 C 345.138 58.916,345.368 58.536,345.592 58.325 C 345.826 58.105,346.000 57.753,346.000 57.500 C 346.000 57.249,346.173 56.896,346.399 56.683 C 346.686 56.414,346.831 56.044,346.916 55.367 C 346.996 54.725,347.134 54.354,347.350 54.203 C 347.606 54.023,347.667 53.773,347.667 52.892 C 347.667 51.964,347.722 51.759,348.042 51.500 C 348.799 50.887,348.676 40.000,347.911 40.000 C 347.717 40.000,347.667 39.729,347.667 38.689 C 347.667 37.659,347.600 37.293,347.354 36.980 C 347.182 36.762,346.950 36.147,346.840 35.614 C 346.729 35.081,346.533 34.605,346.404 34.556 C 346.276 34.506,346.090 34.169,345.993 33.807 C 345.895 33.445,345.670 33.023,345.491 32.870 C 345.313 32.718,345.167 32.461,345.167 32.300 C 345.167 32.139,344.995 31.895,344.785 31.757 C 344.575 31.620,344.310 31.250,344.196 30.936 C 344.083 30.622,343.880 30.323,343.745 30.271 C 343.610 30.219,343.500 30.023,343.500 29.835 C 343.500 29.632,343.331 29.416,343.083 29.303 C 342.854 29.199,342.667 29.011,342.667 28.886 C 342.667 28.762,342.486 28.577,342.264 28.476 C 342.043 28.375,341.823 28.146,341.776 27.967 C 341.730 27.788,341.543 27.603,341.361 27.556 C 341.179 27.508,340.992 27.321,340.944 27.139 C 340.897 26.957,340.703 26.768,340.512 26.718 C 340.322 26.668,340.167 26.527,340.167 26.403 C 340.167 26.280,340.017 26.099,339.835 26.001 C 339.653 25.903,339.192 25.518,338.811 25.145 C 338.430 24.771,337.885 24.386,337.601 24.289 C 337.316 24.192,336.918 23.937,336.716 23.723 C 336.514 23.509,336.245 23.333,336.117 23.333 C 335.989 23.333,335.753 23.188,335.592 23.009 C 335.431 22.831,335.063 22.636,334.774 22.575 C 334.486 22.514,334.084 22.311,333.880 22.125 C 333.650 21.913,333.195 21.755,332.672 21.705 C 332.123 21.652,331.833 21.547,331.833 21.401 C 331.833 21.049,331.262 20.833,330.329 20.833 C 329.639 20.833,329.410 20.759,329.167 20.458 L 328.863 20.083 322.973 20.063 C 319.734 20.051,316.874 20.075,316.619 20.116 M369.699 20.165 C 369.396 20.236,369.059 20.408,368.949 20.547 C 368.827 20.702,368.370 20.828,367.764 20.874 C 367.013 20.931,366.709 21.034,366.487 21.308 C 366.322 21.512,366.006 21.667,365.754 21.667 C 365.182 21.667,364.667 21.946,364.667 22.256 C 364.667 22.417,364.493 22.500,364.156 22.500 C 363.522 22.500,363.000 22.766,363.000 23.089 C 363.000 23.250,362.827 23.333,362.492 23.333 C 362.174 23.333,361.830 23.488,361.570 23.748 C 361.342 23.977,360.976 24.208,360.756 24.263 C 360.537 24.318,360.221 24.515,360.054 24.701 C 359.887 24.886,359.574 25.106,359.359 25.188 C 359.144 25.270,358.929 25.486,358.881 25.669 C 358.833 25.851,358.704 26.000,358.594 26.000 C 358.484 26.000,358.230 26.188,358.031 26.417 C 357.832 26.646,357.592 26.833,357.497 26.833 C 357.402 26.833,357.254 27.021,357.167 27.250 C 357.080 27.479,356.899 27.667,356.765 27.667 C 356.632 27.667,356.477 27.810,356.421 27.985 C 356.366 28.160,356.136 28.424,355.910 28.572 C 355.685 28.720,355.500 28.954,355.500 29.092 C 355.500 29.231,355.388 29.387,355.252 29.439 C 355.115 29.492,354.917 29.821,354.813 30.170 C 354.701 30.544,354.494 30.839,354.313 30.887 C 354.143 30.931,353.934 31.152,353.848 31.378 C 353.762 31.603,353.575 31.833,353.432 31.888 C 353.285 31.944,353.125 32.285,353.063 32.675 C 353.002 33.053,352.852 33.401,352.728 33.448 C 352.604 33.496,352.415 33.845,352.307 34.226 C 352.199 34.606,351.969 35.032,351.797 35.174 C 351.583 35.349,351.451 35.744,351.381 36.419 C 351.307 37.137,351.184 37.484,350.931 37.689 C 350.624 37.937,350.577 38.184,350.527 39.818 C 350.486 41.157,350.413 41.667,350.262 41.667 C 349.677 41.667,349.667 42.102,349.667 66.341 L 349.667 90.167 355.750 90.167 L 361.833 90.167 361.833 81.005 L 361.833 71.844 371.015 71.797 L 380.196 71.750 380.500 71.375 C 380.763 71.051,380.961 71.000,381.974 71.000 C 383.265 71.000,384.000 70.798,384.000 70.444 C 384.000 70.282,384.310 70.185,385.038 70.119 C 385.813 70.049,386.148 69.937,386.357 69.679 C 386.513 69.486,386.833 69.333,387.079 69.333 C 387.637 69.333,388.167 69.057,388.167 68.765 C 388.167 68.634,388.441 68.499,388.833 68.436 C 389.233 68.372,389.582 68.197,389.707 67.998 C 389.820 67.816,390.033 67.667,390.180 67.667 C 390.327 67.667,390.532 67.479,390.636 67.250 C 390.750 67.001,390.965 66.833,391.171 66.833 C 391.360 66.833,391.703 66.646,391.932 66.417 C 392.161 66.188,392.415 66.000,392.495 66.000 C 392.576 66.000,392.779 65.827,392.946 65.616 C 393.113 65.405,393.388 65.180,393.557 65.115 C 393.727 65.051,393.902 64.856,393.948 64.681 C 393.994 64.507,394.174 64.327,394.348 64.281 C 394.522 64.236,394.715 64.068,394.776 63.909 C 394.837 63.750,395.250 63.278,395.693 62.859 C 396.137 62.440,396.500 62.019,396.500 61.922 C 396.500 61.826,396.643 61.657,396.818 61.548 C 396.993 61.439,397.186 61.126,397.246 60.854 C 397.305 60.581,397.527 60.245,397.737 60.107 C 397.988 59.943,398.158 59.622,398.229 59.178 C 398.297 58.754,398.426 58.500,398.574 58.500 C 398.704 58.500,398.862 58.331,398.925 58.125 C 398.987 57.919,399.180 57.595,399.352 57.406 C 399.956 56.745,400.016 55.528,399.966 44.925 L 399.917 34.670 399.458 34.245 C 399.159 33.967,399.000 33.650,399.000 33.330 C 399.000 33.004,398.873 32.758,398.618 32.591 C 398.408 32.453,398.143 32.084,398.030 31.770 C 397.916 31.455,397.713 31.156,397.578 31.104 C 397.444 31.053,397.333 30.881,397.333 30.722 C 397.333 30.563,396.958 30.082,396.500 29.651 C 396.042 29.221,395.667 28.778,395.667 28.667 C 395.667 28.302,393.316 26.023,392.831 25.916 C 392.560 25.857,392.331 25.675,392.279 25.478 C 392.231 25.293,392.038 25.102,391.851 25.053 C 391.664 25.004,391.466 24.822,391.411 24.649 C 391.356 24.475,391.209 24.333,391.085 24.333 C 390.961 24.333,390.642 24.151,390.377 23.927 C 390.111 23.704,389.687 23.470,389.434 23.406 C 389.180 23.342,388.934 23.188,388.886 23.063 C 388.838 22.939,388.488 22.747,388.108 22.638 C 387.728 22.529,387.286 22.307,387.126 22.144 C 386.966 21.982,386.553 21.798,386.209 21.737 C 385.865 21.676,385.410 21.467,385.198 21.274 C 384.897 20.999,384.544 20.909,383.588 20.860 C 382.595 20.810,382.349 20.743,382.287 20.508 C 382.243 20.340,381.981 20.171,381.668 20.109 C 380.907 19.956,370.370 20.006,369.699 20.165 M326.663 32.493 C 326.765 32.684,327.095 32.865,327.460 32.930 C 327.803 32.991,328.233 33.172,328.417 33.332 C 328.600 33.492,328.972 33.676,329.243 33.740 C 329.513 33.804,329.836 34.002,329.960 34.178 C 330.084 34.355,330.281 34.500,330.398 34.500 C 330.643 34.500,333.167 36.920,333.167 37.154 C 333.167 37.239,333.354 37.457,333.583 37.637 C 333.813 37.817,334.000 38.034,334.000 38.119 C 334.000 38.204,334.188 38.436,334.417 38.636 C 334.685 38.869,334.833 39.173,334.833 39.489 C 334.833 39.798,334.962 40.071,335.179 40.223 C 335.422 40.394,335.561 40.739,335.650 41.396 C 335.720 41.909,335.902 42.466,336.055 42.635 C 336.496 43.123,336.470 48.809,336.025 49.190 C 335.855 49.335,335.669 49.755,335.610 50.122 C 335.551 50.489,335.389 50.885,335.250 51.000 C 335.111 51.115,334.951 51.500,334.894 51.855 C 334.837 52.210,334.721 52.500,334.636 52.500 C 334.551 52.500,334.339 52.819,334.166 53.208 C 333.992 53.598,333.697 54.011,333.509 54.126 C 333.321 54.242,333.167 54.439,333.167 54.565 C 333.167 54.691,333.011 54.835,332.821 54.885 C 332.631 54.935,332.436 55.124,332.389 55.306 C 332.341 55.487,332.154 55.675,331.972 55.722 C 331.791 55.770,331.601 55.964,331.552 56.154 C 331.502 56.344,331.359 56.500,331.234 56.500 C 331.110 56.500,330.885 56.688,330.735 56.917 C 330.567 57.172,330.305 57.333,330.057 57.333 C 329.834 57.333,329.464 57.521,329.235 57.750 C 329.006 57.979,328.634 58.167,328.409 58.167 C 328.184 58.167,327.862 58.305,327.693 58.474 C 327.497 58.670,327.028 58.818,326.401 58.883 C 325.694 58.956,325.339 59.080,325.140 59.325 C 324.729 59.832,320.361 59.850,320.047 59.346 C 319.905 59.119,319.565 58.991,318.882 58.907 C 318.351 58.841,317.738 58.648,317.519 58.477 C 317.301 58.306,316.948 58.167,316.735 58.167 C 316.522 58.167,316.161 57.979,315.932 57.750 C 315.703 57.521,315.333 57.333,315.110 57.333 C 314.862 57.333,314.599 57.172,314.432 56.917 C 314.282 56.688,314.094 56.500,314.014 56.500 C 313.842 56.500,312.000 54.682,312.000 54.512 C 312.000 54.447,311.813 54.230,311.583 54.031 C 311.354 53.832,311.167 53.582,311.167 53.477 C 311.167 53.219,310.018 51.500,309.846 51.500 C 309.771 51.500,309.659 51.048,309.596 50.496 C 309.513 49.763,309.395 49.437,309.158 49.289 C 308.656 48.976,308.656 42.191,309.158 41.877 C 309.339 41.764,309.533 41.396,309.596 41.045 C 309.657 40.700,309.839 40.267,309.999 40.083 C 310.159 39.900,310.342 39.528,310.407 39.257 C 310.471 38.987,310.668 38.664,310.845 38.540 C 311.022 38.416,311.167 38.218,311.167 38.100 C 311.167 37.982,311.312 37.753,311.491 37.592 C 311.669 37.431,311.860 37.092,311.915 36.839 C 311.973 36.575,312.190 36.300,312.425 36.193 C 312.650 36.091,312.833 35.908,312.833 35.787 C 312.833 35.666,313.085 35.476,313.393 35.365 C 313.700 35.253,314.087 35.013,314.252 34.831 C 314.417 34.649,314.648 34.500,314.766 34.500 C 314.884 34.500,315.082 34.355,315.206 34.178 C 315.330 34.002,315.653 33.804,315.924 33.740 C 316.195 33.676,316.567 33.492,316.750 33.332 C 316.933 33.172,317.366 32.991,317.712 32.929 C 318.062 32.867,318.431 32.673,318.544 32.492 C 318.859 31.987,326.393 31.988,326.663 32.493 M379.782 32.479 C 379.889 32.651,380.259 32.845,380.605 32.910 C 380.950 32.974,381.415 33.171,381.639 33.347 C 381.862 33.523,382.142 33.667,382.260 33.667 C 382.378 33.667,382.686 33.844,382.946 34.062 C 383.205 34.279,383.660 34.510,383.958 34.575 C 384.264 34.642,384.500 34.798,384.500 34.933 C 384.500 35.066,384.688 35.259,384.917 35.364 C 385.146 35.468,385.333 35.656,385.333 35.780 C 385.333 35.905,385.521 36.093,385.750 36.197 C 385.979 36.301,386.167 36.489,386.167 36.614 C 386.167 36.738,386.354 36.926,386.583 37.030 C 386.882 37.166,387.000 37.351,387.000 37.681 C 387.000 37.968,387.150 38.260,387.396 38.454 C 387.614 38.625,387.843 38.998,387.905 39.282 C 387.968 39.566,388.165 39.931,388.343 40.092 C 388.521 40.253,388.667 40.588,388.667 40.837 C 388.667 41.085,388.835 41.503,389.042 41.765 C 389.405 42.228,389.417 42.358,389.417 45.945 C 389.417 49.570,389.409 49.655,389.042 49.997 C 388.835 50.189,388.667 50.534,388.667 50.764 C 388.667 50.996,388.481 51.355,388.250 51.569 C 388.008 51.793,387.833 52.140,387.833 52.395 C 387.833 52.657,387.665 52.982,387.417 53.198 C 387.188 53.397,387.000 53.630,387.000 53.714 C 387.000 53.799,386.813 54.016,386.583 54.196 C 386.354 54.377,386.167 54.616,386.167 54.728 C 386.167 54.840,385.935 55.116,385.651 55.341 C 385.367 55.566,384.974 55.906,384.776 56.096 C 384.578 56.286,384.278 56.493,384.109 56.555 C 383.940 56.617,383.763 56.818,383.715 57.001 C 383.667 57.184,383.497 57.333,383.337 57.333 C 383.177 57.333,382.787 57.509,382.470 57.724 C 382.154 57.939,381.674 58.170,381.406 58.237 C 381.137 58.304,380.804 58.456,380.667 58.574 C 380.529 58.692,379.967 58.837,379.417 58.897 C 378.716 58.972,378.334 59.103,378.140 59.335 C 377.871 59.658,377.642 59.667,369.848 59.667 L 361.833 59.667 361.833 51.661 C 361.833 44.746,361.867 43.643,362.080 43.562 C 362.360 43.454,362.664 42.504,362.666 41.734 C 362.666 41.440,362.803 41.095,362.983 40.932 C 363.158 40.774,363.347 40.398,363.403 40.095 C 363.460 39.793,363.648 39.418,363.820 39.262 C 363.993 39.106,364.182 38.721,364.241 38.406 C 364.305 38.065,364.447 37.833,364.591 37.833 C 364.724 37.833,364.833 37.761,364.833 37.672 C 364.833 37.584,365.058 37.281,365.333 37.000 C 365.608 36.719,365.833 36.416,365.833 36.328 C 365.833 36.239,365.947 36.167,366.087 36.167 C 366.226 36.167,366.426 35.979,366.530 35.750 C 366.635 35.521,366.816 35.333,366.934 35.333 C 367.052 35.333,367.246 35.195,367.366 35.026 C 367.485 34.858,367.752 34.630,367.958 34.521 C 368.165 34.411,368.333 34.221,368.333 34.099 C 368.333 33.968,368.606 33.832,368.991 33.771 C 369.353 33.713,369.746 33.527,369.866 33.357 C 369.997 33.172,370.397 33.002,370.868 32.932 C 371.299 32.868,371.824 32.672,372.034 32.496 C 372.616 32.011,379.480 31.996,379.782 32.479 " stroke="none" fill="#fcfcfc" fill-rule="evenodd"></path><path id="path1" d="M0.112 12.777 C 0.050 12.839,-0.000 14.780,-0.000 17.090 L -0.000 21.292 0.521 21.396 C 0.807 21.453,2.864 21.500,5.091 21.500 L 9.141 21.500 9.195 34.903 L 9.250 48.306 9.609 48.791 C 9.845 49.110,10.008 49.657,10.087 50.392 C 10.173 51.192,10.293 51.570,10.513 51.724 C 10.682 51.842,10.869 52.248,10.930 52.630 C 11.003 53.089,11.171 53.407,11.426 53.574 C 11.671 53.735,11.831 54.025,11.864 54.372 C 11.900 54.747,12.034 54.968,12.292 55.081 C 12.498 55.172,12.667 55.339,12.667 55.452 C 12.667 55.566,12.854 55.782,13.083 55.932 C 13.313 56.082,13.500 56.310,13.500 56.439 C 13.500 56.568,13.687 56.759,13.917 56.864 C 14.146 56.968,14.333 57.156,14.333 57.280 C 14.333 57.405,14.519 57.592,14.747 57.696 C 14.974 57.799,15.204 58.023,15.258 58.192 C 15.312 58.361,15.462 58.500,15.591 58.500 C 15.720 58.500,15.945 58.682,16.090 58.904 C 16.263 59.168,16.580 59.346,17.004 59.417 C 17.419 59.488,17.687 59.636,17.749 59.829 C 17.844 60.129,18.297 60.327,18.898 60.331 C 19.072 60.332,19.301 60.453,19.408 60.600 C 19.624 60.895,20.702 61.148,21.792 61.159 C 22.271 61.164,22.608 61.275,22.833 61.500 C 23.341 62.007,27.993 62.007,28.500 61.500 C 28.709 61.291,29.066 61.163,29.458 61.157 C 30.574 61.139,31.707 60.886,31.856 60.621 C 31.935 60.479,32.301 60.312,32.668 60.250 C 33.035 60.188,33.432 59.999,33.550 59.830 C 33.668 59.662,33.961 59.474,34.200 59.414 C 34.439 59.354,34.805 59.124,35.013 58.903 C 35.221 58.681,35.489 58.500,35.609 58.500 C 35.728 58.500,35.949 58.313,36.099 58.083 C 36.249 57.854,36.483 57.667,36.618 57.667 C 36.754 57.667,36.905 57.511,36.955 57.321 C 37.005 57.130,37.223 56.907,37.439 56.825 C 37.656 56.742,37.833 56.569,37.833 56.440 C 37.833 56.311,38.021 56.082,38.250 55.932 C 38.479 55.782,38.667 55.560,38.667 55.439 C 38.667 55.317,38.810 55.089,38.985 54.930 C 39.160 54.772,39.398 54.404,39.514 54.113 C 39.630 53.822,39.852 53.458,40.008 53.305 C 40.164 53.152,40.344 52.748,40.407 52.407 C 40.471 52.066,40.687 51.567,40.887 51.297 C 41.203 50.871,41.257 50.548,41.306 48.820 C 41.348 47.315,41.415 46.833,41.581 46.833 C 42.123 46.833,42.167 45.847,42.167 33.642 L 42.167 21.500 45.583 21.500 L 49.000 21.500 49.000 36.127 C 49.000 50.378,48.992 50.758,48.679 50.953 C 48.451 51.096,48.326 51.432,48.243 52.118 C 48.177 52.674,48.000 53.225,47.827 53.417 C 47.662 53.600,47.476 54.029,47.413 54.369 C 47.350 54.710,47.198 55.072,47.074 55.174 C 46.951 55.276,46.761 55.635,46.651 55.972 C 46.541 56.308,46.312 56.762,46.142 56.981 C 45.972 57.199,45.833 57.478,45.833 57.599 C 45.833 57.721,45.674 57.969,45.478 58.151 C 45.283 58.333,45.039 58.621,44.936 58.791 C 44.834 58.961,44.600 59.350,44.417 59.656 C 44.233 59.962,43.877 60.429,43.625 60.695 C 43.373 60.961,43.167 61.251,43.167 61.339 C 43.167 61.428,43.066 61.500,42.943 61.500 C 42.821 61.500,42.635 61.688,42.530 61.917 C 42.426 62.146,42.231 62.333,42.098 62.333 C 41.965 62.333,41.812 62.472,41.758 62.641 C 41.704 62.811,41.474 63.034,41.247 63.138 C 41.019 63.241,40.833 63.434,40.833 63.567 C 40.833 63.699,40.567 63.895,40.242 64.003 C 39.916 64.110,39.561 64.341,39.452 64.516 C 39.342 64.690,39.125 64.833,38.969 64.833 C 38.813 64.833,38.586 64.975,38.465 65.148 C 38.344 65.321,37.983 65.587,37.664 65.738 C 36.318 66.376,35.833 66.682,35.833 66.896 C 35.833 67.042,35.560 67.154,35.066 67.210 C 34.644 67.257,34.084 67.455,33.823 67.648 C 33.561 67.842,33.116 68.000,32.835 68.000 C 32.217 68.000,31.167 68.414,31.167 68.658 C 31.167 68.769,30.532 68.833,29.428 68.833 C 27.579 68.833,26.833 69.000,26.833 69.413 C 26.833 69.865,24.882 69.764,24.500 69.292 C 24.218 68.943,24.043 68.913,22.009 68.862 C 19.954 68.810,19.797 68.782,19.418 68.403 C 19.089 68.074,18.846 68.000,18.091 68.000 C 17.390 68.000,17.167 67.941,17.167 67.756 C 17.167 67.435,16.646 67.167,16.022 67.167 C 15.678 67.167,15.491 67.068,15.422 66.851 C 15.321 66.531,14.875 66.340,14.220 66.336 C 14.003 66.334,13.813 66.198,13.750 66.000 C 13.692 65.817,13.543 65.667,13.418 65.667 C 13.294 65.667,12.975 65.484,12.710 65.261 C 12.445 65.038,12.026 64.804,11.780 64.743 C 11.535 64.681,11.333 64.524,11.333 64.393 C 11.333 64.263,11.207 64.108,11.053 64.049 C 10.705 63.915,7.833 61.038,7.833 60.823 C 7.833 60.737,7.721 60.667,7.583 60.667 C 7.446 60.667,7.333 60.594,7.333 60.506 C 7.333 60.417,7.108 60.115,6.833 59.833 C 6.558 59.552,6.333 59.221,6.333 59.098 C 6.333 58.975,6.217 58.777,6.074 58.659 C 5.931 58.540,5.710 58.193,5.582 57.888 C 5.455 57.583,5.234 57.333,5.092 57.333 C 4.915 57.333,4.833 57.173,4.833 56.826 C 4.833 56.507,4.679 56.164,4.417 55.902 C 4.188 55.672,4.000 55.297,4.000 55.068 C 4.000 54.839,3.822 54.474,3.605 54.257 C 3.309 53.961,3.190 53.621,3.130 52.899 C 3.069 52.152,2.970 51.882,2.692 51.697 C 2.368 51.482,2.333 51.311,2.333 49.904 C 2.333 48.350,2.125 47.500,1.745 47.500 C 1.610 47.500,1.517 47.050,1.464 46.139 C 1.381 44.697,1.072 44.167,0.314 44.167 C 0.006 44.167,-0.001 44.566,0.041 60.458 L 0.083 76.750 93.722 76.750 C 186.221 76.750,187.363 76.746,187.597 76.426 C 187.904 76.007,187.957 30.903,187.651 30.027 C 187.388 29.273,186.706 29.121,183.883 29.192 C 182.019 29.238,181.471 29.306,181.226 29.519 C 181.047 29.675,180.459 29.833,179.833 29.893 C 179.090 29.965,178.672 30.092,178.500 30.297 C 178.362 30.462,177.816 30.693,177.285 30.812 C 176.684 30.946,176.244 31.148,176.120 31.347 C 176.010 31.523,175.790 31.667,175.630 31.667 C 175.471 31.667,175.223 31.847,175.078 32.067 C 174.934 32.288,174.634 32.514,174.411 32.570 C 173.865 32.707,171.869 34.716,171.731 35.268 C 171.670 35.511,171.480 35.747,171.310 35.791 C 171.139 35.836,171.000 35.936,171.000 36.014 C 171.000 36.091,170.775 36.411,170.500 36.725 C 170.225 37.038,170.000 37.453,170.000 37.648 C 170.000 37.843,169.822 38.157,169.603 38.347 C 169.302 38.609,169.179 38.935,169.092 39.703 C 169.008 40.452,168.884 40.791,168.614 41.009 L 168.250 41.304 168.202 55.485 L 168.154 69.667 164.327 69.667 L 160.500 69.667 160.500 55.437 L 160.500 41.207 160.875 40.959 C 161.206 40.739,161.256 40.543,161.308 39.272 C 161.353 38.198,161.425 37.833,161.595 37.833 C 161.895 37.833,162.167 37.303,162.167 36.718 C 162.167 36.438,162.293 36.168,162.479 36.052 C 162.651 35.944,162.845 35.572,162.910 35.226 C 162.975 34.879,163.166 34.498,163.334 34.380 C 163.503 34.263,163.694 33.923,163.759 33.625 C 163.824 33.327,164.036 32.919,164.230 32.717 C 164.424 32.516,164.752 32.176,164.958 31.961 C 165.165 31.747,165.333 31.483,165.333 31.375 C 165.333 31.267,165.478 31.101,165.656 31.006 C 165.833 30.911,166.073 30.571,166.189 30.251 C 166.305 29.930,166.531 29.626,166.691 29.575 C 166.852 29.525,167.028 29.341,167.083 29.167 C 167.139 28.993,167.326 28.805,167.500 28.750 C 167.674 28.695,167.858 28.518,167.909 28.358 C 167.960 28.198,168.264 27.972,168.584 27.856 C 168.904 27.740,169.244 27.500,169.339 27.323 C 169.434 27.145,169.617 27.000,169.746 27.000 C 169.875 27.000,170.079 26.862,170.199 26.693 C 170.319 26.524,170.585 26.297,170.792 26.187 C 170.998 26.078,171.167 25.885,171.167 25.759 C 171.167 25.621,171.433 25.484,171.834 25.417 C 172.201 25.354,172.595 25.172,172.709 25.011 C 172.823 24.850,173.197 24.626,173.540 24.513 C 173.883 24.400,174.221 24.213,174.290 24.096 C 174.360 23.979,174.717 23.837,175.083 23.780 C 175.450 23.723,175.866 23.535,176.008 23.362 C 176.188 23.141,176.557 23.023,177.241 22.966 C 177.856 22.915,178.287 22.789,178.406 22.626 C 178.550 22.430,179.064 22.339,180.506 22.255 C 182.325 22.149,183.333 21.940,183.333 21.669 C 183.333 21.601,184.246 21.508,185.361 21.462 C 187.095 21.391,187.421 21.333,187.620 21.064 C 188.005 20.543,187.857 13.451,187.452 13.047 C 187.147 12.742,0.416 12.473,0.112 12.777 M115.198 35.181 L 115.250 48.863 115.602 49.148 C 115.867 49.363,115.983 49.708,116.074 50.551 C 116.160 51.360,116.274 51.712,116.485 51.825 C 116.656 51.917,116.859 52.354,116.979 52.888 C 117.091 53.387,117.329 53.928,117.508 54.090 C 117.687 54.252,117.833 54.484,117.833 54.605 C 117.833 54.727,118.021 54.949,118.250 55.099 C 118.479 55.249,118.667 55.477,118.667 55.606 C 118.667 55.735,118.854 55.926,119.083 56.030 C 119.313 56.135,119.500 56.322,119.500 56.447 C 119.500 56.572,119.688 56.759,119.917 56.864 C 120.146 56.968,120.333 57.156,120.333 57.280 C 120.333 57.405,120.521 57.593,120.750 57.697 C 120.979 57.801,121.167 57.985,121.167 58.104 C 121.167 58.224,121.335 58.411,121.542 58.521 C 121.748 58.630,122.015 58.857,122.134 59.026 C 122.254 59.194,122.645 59.379,123.004 59.437 C 123.420 59.503,123.691 59.648,123.751 59.836 C 123.844 60.128,124.300 60.327,124.890 60.331 C 125.059 60.332,125.321 60.482,125.473 60.664 C 125.692 60.925,126.047 61.018,127.167 61.107 C 128.289 61.196,128.630 61.285,128.809 61.538 C 129.120 61.976,133.930 61.927,134.441 61.480 C 134.626 61.318,135.218 61.166,135.917 61.100 C 136.628 61.033,137.246 60.872,137.500 60.688 C 137.729 60.522,138.188 60.335,138.519 60.273 C 138.850 60.211,139.251 60.016,139.411 59.840 C 139.571 59.663,139.909 59.473,140.163 59.417 C 140.417 59.362,140.797 59.132,141.008 58.908 C 141.219 58.684,141.460 58.500,141.544 58.500 C 141.738 58.500,143.833 56.414,143.833 56.222 C 143.833 56.143,143.998 56.005,144.200 55.915 C 144.417 55.818,144.628 55.513,144.714 55.173 C 144.795 54.855,145.042 54.428,145.264 54.222 C 145.485 54.017,145.667 53.774,145.667 53.682 C 145.667 53.590,145.854 53.239,146.083 52.901 C 146.350 52.508,146.500 52.055,146.500 51.643 C 146.500 51.203,146.574 51.000,146.734 51.000 C 147.298 51.000,147.333 50.113,147.333 35.725 L 147.333 21.500 151.167 21.500 L 155.000 21.500 155.000 36.063 C 155.000 50.562,154.998 50.627,154.658 50.855 C 154.402 51.026,154.291 51.333,154.215 52.083 C 154.145 52.773,154.021 53.149,153.814 53.296 C 153.648 53.414,153.464 53.789,153.403 54.130 C 153.342 54.471,153.161 54.900,153.001 55.083 C 152.841 55.267,152.658 55.642,152.593 55.917 C 152.528 56.192,152.341 56.567,152.176 56.750 C 152.012 56.933,151.824 57.305,151.760 57.576 C 151.696 57.847,151.498 58.170,151.322 58.294 C 151.145 58.418,151.000 58.598,151.000 58.694 C 151.000 58.790,150.813 59.016,150.583 59.196 C 150.354 59.377,150.167 59.672,150.167 59.853 C 150.167 60.034,149.979 60.356,149.750 60.569 C 149.521 60.781,149.333 61.028,149.333 61.117 C 149.333 61.207,149.146 61.365,148.917 61.470 C 148.688 61.574,148.500 61.762,148.500 61.886 C 148.500 62.011,148.313 62.199,148.083 62.303 C 147.854 62.407,147.667 62.595,147.667 62.720 C 147.667 62.844,147.479 63.032,147.250 63.136 C 147.021 63.241,146.833 63.425,146.833 63.546 C 146.833 63.667,146.582 63.857,146.274 63.969 C 145.966 64.080,145.580 64.320,145.415 64.502 C 145.250 64.684,145.018 64.833,144.900 64.833 C 144.782 64.833,144.586 64.975,144.465 65.148 C 144.344 65.321,143.983 65.587,143.664 65.738 C 142.296 66.386,141.833 66.684,141.833 66.918 C 141.833 67.092,141.655 67.167,141.242 67.167 C 140.610 67.167,139.667 67.569,139.667 67.838 C 139.667 67.927,139.364 68.000,138.995 68.000 C 138.245 68.000,137.167 68.388,137.167 68.658 C 137.167 68.769,136.532 68.833,135.428 68.833 C 133.579 68.833,132.833 69.000,132.833 69.413 C 132.833 69.858,130.873 69.762,130.372 69.292 C 130.011 68.952,129.777 68.911,127.874 68.857 C 125.993 68.804,125.745 68.762,125.495 68.453 C 125.284 68.192,124.968 68.090,124.196 68.034 C 123.407 67.977,123.155 67.894,123.083 67.665 C 122.988 67.366,122.532 67.173,121.912 67.169 C 121.726 67.168,121.449 67.021,121.297 66.843 C 121.144 66.665,120.755 66.469,120.432 66.409 C 120.065 66.340,119.807 66.180,119.744 65.983 C 119.689 65.809,119.512 65.667,119.351 65.667 C 119.190 65.667,118.886 65.483,118.675 65.259 C 118.464 65.034,118.079 64.804,117.820 64.747 C 117.561 64.690,117.302 64.499,117.246 64.322 C 117.190 64.145,117.045 64.000,116.925 64.000 C 116.804 64.000,116.582 63.813,116.432 63.583 C 116.282 63.354,116.048 63.167,115.913 63.167 C 115.777 63.167,115.667 63.107,115.667 63.034 C 115.667 62.962,115.135 62.345,114.486 61.664 C 113.836 60.983,113.234 60.292,113.147 60.129 C 113.060 59.967,112.878 59.833,112.744 59.833 C 112.610 59.833,112.500 59.723,112.500 59.587 C 112.500 59.452,112.313 59.218,112.083 59.068 C 111.828 58.901,111.667 58.638,111.667 58.390 C 111.667 58.167,111.489 57.807,111.272 57.590 C 111.054 57.372,110.824 56.982,110.759 56.722 C 110.695 56.463,110.507 56.100,110.342 55.917 C 110.176 55.733,109.991 55.304,109.931 54.963 C 109.870 54.622,109.685 54.247,109.520 54.130 C 109.323 53.990,109.184 53.603,109.115 53.000 C 109.042 52.372,108.903 51.996,108.671 51.807 C 108.382 51.570,108.333 51.334,108.333 50.174 C 108.333 48.941,108.295 48.782,107.917 48.431 L 107.500 48.045 107.500 34.773 L 107.500 21.500 111.323 21.500 L 115.146 21.500 115.198 35.181 M84.158 22.658 C 84.420 22.920,84.715 23.000,85.417 23.000 C 85.921 23.000,86.333 23.070,86.333 23.155 C 86.333 23.470,86.872 23.833,87.338 23.833 C 87.628 23.833,87.983 23.998,88.235 24.250 C 88.497 24.512,88.840 24.667,89.159 24.667 C 89.438 24.667,89.667 24.740,89.667 24.829 C 89.667 24.995,91.625 26.333,91.869 26.333 C 91.944 26.333,92.329 26.671,92.724 27.083 C 93.119 27.496,93.510 27.833,93.593 27.833 C 93.824 27.833,96.333 30.382,96.333 30.617 C 96.333 30.732,96.518 30.947,96.744 31.094 C 96.969 31.242,97.199 31.506,97.255 31.682 C 97.310 31.857,97.444 32.001,97.553 32.002 C 97.661 32.003,97.883 32.284,98.046 32.627 C 98.574 33.741,99.079 34.499,99.292 34.500 C 99.406 34.500,99.500 34.684,99.500 34.909 C 99.500 35.448,99.835 36.167,100.087 36.167 C 100.207 36.167,100.325 36.540,100.383 37.104 C 100.444 37.686,100.602 38.175,100.802 38.395 C 101.025 38.642,101.154 39.105,101.226 39.914 C 101.294 40.693,101.439 41.228,101.664 41.532 C 101.995 41.979,102.000 42.212,102.000 55.827 L 102.000 69.667 98.169 69.667 L 94.339 69.667 94.294 55.485 C 94.250 41.340,94.249 41.303,93.903 41.023 C 93.663 40.829,93.522 40.463,93.449 39.845 C 93.385 39.305,93.213 38.809,93.017 38.599 C 92.838 38.407,92.638 38.025,92.574 37.750 C 92.509 37.475,92.325 37.100,92.166 36.917 C 92.006 36.733,91.788 36.415,91.682 36.208 C 91.575 36.002,91.384 35.833,91.257 35.833 C 91.130 35.833,90.980 35.621,90.923 35.361 C 90.809 34.843,89.320 33.333,88.923 33.333 C 88.786 33.333,88.551 33.146,88.401 32.917 C 88.251 32.688,88.033 32.500,87.917 32.500 C 87.800 32.500,87.582 32.313,87.432 32.083 C 87.260 31.821,87.003 31.667,86.738 31.667 C 86.507 31.667,86.152 31.490,85.950 31.275 C 85.749 31.059,85.291 30.828,84.933 30.762 C 84.576 30.696,84.164 30.494,84.017 30.314 C 83.792 30.036,83.464 29.969,81.917 29.882 C 80.521 29.804,80.037 29.716,79.888 29.515 C 79.596 29.117,77.160 29.138,76.713 29.542 C 76.480 29.753,76.095 29.836,75.320 29.843 C 73.778 29.858,72.648 30.076,72.470 30.393 C 72.386 30.543,72.018 30.713,71.653 30.772 C 71.287 30.830,70.891 31.016,70.772 31.186 C 70.654 31.355,70.263 31.554,69.903 31.627 C 69.469 31.716,69.195 31.885,69.085 32.130 C 68.995 32.334,68.801 32.500,68.654 32.500 C 68.507 32.500,68.306 32.678,68.207 32.895 C 68.108 33.113,67.820 33.342,67.567 33.406 C 66.991 33.550,65.879 34.679,65.731 35.268 C 65.670 35.511,65.483 35.746,65.315 35.790 C 65.148 35.834,64.961 36.027,64.900 36.220 C 64.839 36.413,64.611 36.710,64.394 36.881 C 64.150 37.073,64.000 37.366,64.000 37.650 C 64.000 37.918,63.834 38.264,63.601 38.483 C 63.315 38.752,63.169 39.123,63.086 39.790 C 63.003 40.448,62.864 40.807,62.610 41.013 L 62.250 41.304 62.202 55.485 L 62.154 69.667 58.327 69.667 L 54.500 69.667 54.500 55.745 C 54.500 43.826,54.534 41.810,54.738 41.731 C 55.089 41.597,55.333 40.747,55.333 39.662 C 55.333 38.889,55.398 38.664,55.672 38.479 C 55.914 38.315,56.039 37.990,56.114 37.333 C 56.189 36.677,56.329 36.312,56.609 36.050 C 56.851 35.822,57.000 35.492,57.000 35.180 C 57.000 34.855,57.113 34.618,57.322 34.506 C 57.499 34.411,57.695 34.165,57.758 33.959 C 57.820 33.752,58.007 33.433,58.173 33.250 C 58.339 33.067,58.526 32.710,58.589 32.458 C 58.652 32.206,58.805 32.000,58.929 32.000 C 59.053 32.000,59.244 31.831,59.354 31.625 C 59.463 31.419,59.691 31.152,59.860 31.032 C 60.029 30.912,60.167 30.736,60.167 30.641 C 60.167 30.545,60.973 29.691,61.958 28.741 C 64.228 26.555,64.477 26.333,64.669 26.333 C 64.755 26.333,64.942 26.155,65.085 25.937 C 65.255 25.678,65.570 25.505,65.995 25.437 C 66.431 25.367,66.678 25.228,66.746 25.013 C 66.814 24.798,67.066 24.657,67.516 24.581 C 67.899 24.516,68.268 24.333,68.382 24.151 C 68.501 23.960,68.769 23.833,69.051 23.833 C 69.649 23.833,70.167 23.560,70.167 23.244 C 70.167 23.057,70.400 23.000,71.167 23.000 C 71.937 23.000,72.242 22.925,72.493 22.674 C 73.124 22.043,83.528 22.028,84.158 22.658 " stroke="none" fill="#ec1c24" fill-rule="evenodd"></path><path id="path2" d="" stroke="none" fill="#f4c8100" fill-rule="evenodd"></path></g></svg>
