<svg xmlns="http://www.w3.org/2000/svg" width="64" height="64" viewBox="0 0 64 64">
  <g id="Group_3147" data-name="Group 3147" transform="translate(-156 -112)">
    <circle id="Ellipse_44" data-name="Ellipse 44" cx="32" cy="32" r="32" transform="translate(156 112)" fill="#88d76c"/>
    <path id="Path_188" data-name="Path 188" d="M102.467,155.156a.687.687,0,0,0-.1.965.714.714,0,0,0,.058.063l.015.015,7.357,7.979a.694.694,0,0,0,.491.223h.015a.688.688,0,0,0,.484-.2l18.609-18.559a.686.686,0,0,0,0-.971.69.69,0,0,0-.326-.184H128.9a.68.68,0,0,0-.48.2l-18.1,18.057-6.888-7.482a.687.687,0,0,0-.964-.1Z" transform="translate(72.765 -11.647)" fill="#fff"/>
  </g>
</svg>
