<?xml version="1.0" encoding="utf-8"?>
<!-- Generator: Adobe Illustrator 24.1.2, SVG Export Plug-In . SVG Version: 6.00 Build 0)  -->
<svg version="1.1" id="Layer_1" xmlns="http://www.w3.org/2000/svg" xmlns:xlink="http://www.w3.org/1999/xlink" x="0px" y="0px"
	 viewBox="0 0 512 512" style="enable-background:new 0 0 512 512;" xml:space="preserve">
<g>
	<path d="M30.03,506.86c1.19-11.52,2.31-23.05,3.57-34.56c1.42-12.99,2.94-25.98,4.45-38.96c1.55-13.31,3.18-26.61,4.69-39.93
		c1.49-13.16,2.82-26.35,4.32-39.51c1.5-13.15,3.15-26.28,4.67-39.43c1.16-10.05,2.17-20.12,3.33-30.17
		c1.53-13.3,3.16-26.59,4.69-39.89c1.47-12.83,2.84-25.68,4.3-38.51c1.52-13.33,3.12-26.65,4.64-39.98
		c1.16-10.21,2.22-20.43,3.37-30.63c0.27-2.4,0.73-4.78,1.15-7.47c27.02,0,53.62,0,80.81,0c0-8.17-0.11-15.96,0.02-23.74
		c0.66-41.4,28.36-78.73,66.18-92.15c36.17-12.84,69.93-7.48,99.96,16.14c20.76,16.33,33.53,38.19,36.69,64.78
		c1.35,11.34,1.21,22.85,1.77,34.86c26.39,0,53.1,0,80.34,0c1.03,8.64,2.03,16.79,2.97,24.95c1.53,13.32,3.02,26.64,4.54,39.97
		c1.48,13.01,2.95,26.02,4.47,39.02c1.57,13.47,3.25,26.93,4.79,40.4c1.13,9.87,2.08,19.77,3.22,29.64
		c1.55,13.47,3.26,26.93,4.79,40.41c1.47,13,2.74,26.02,4.22,39.01c1.52,13.31,3.23,26.59,4.77,39.9
		c1.46,12.66,2.77,25.33,4.22,37.99c1.55,13.64,3.21,27.27,4.75,40.91c0.26,2.3,0.18,4.65,0.26,6.97
		C331.32,506.86,180.68,506.86,30.03,506.86z M90.97,148.76C78.11,261.29,65.26,373.73,52.39,486.32c135.93,0,271.26,0,407.22,0
		c-12.89-112.81-25.73-225.15-38.58-337.55c-21.28,0-41.86,0-63,0c0,7.23-0.11,14.19,0.11,21.14c0.04,1.16,1.3,2.54,2.35,3.38
		c9.08,7.26,10.54,21.37,2.97,29.62c-8.1,8.83-21.35,9.27-29.81,1c-8.33-8.14-7.53-22.05,1.66-30.06c1.06-0.93,2.51-2.22,2.55-3.38
		c0.23-7.24,0.12-14.48,0.12-21.88c-55.07,0-109.33,0-163.99,0c0,6.49-0.21,12.98,0.13,19.44c0.1,2,1.2,4.46,2.68,5.8
		c8.9,8.06,9.87,21.36,1.88,29.8c-8.1,8.56-22,8.2-30.19-0.76c-7.58-8.31-6.1-22.25,3.05-29.58c1.05-0.84,2.29-2.22,2.33-3.39
		c0.22-6.95,0.11-13.91,0.11-21.12C132.81,148.76,112.22,148.76,90.97,148.76z M338.45,127.68c-0.49-10.68-0.34-21.15-1.56-31.45
		c-2.68-22.53-13.8-40.52-31.76-54.13C286.5,27.98,265.4,23.28,242.39,26.9c-18.85,2.97-34.47,11.89-47.24,25.93
		c-12.08,13.28-19.02,29.01-20.73,46.74c-0.9,9.32-0.16,18.79-0.16,28.1C229.05,127.68,283.29,127.68,338.45,127.68z"/>
</g>
</svg>
