<svg xmlns="http://www.w3.org/2000/svg" width="22.2" height="22.202" viewBox="0 0 22.2 22.202">
  <g id="cargo" transform="translate(0.1 0.102)">
    <g id="Group_258" data-name="Group 258">
      <g id="Group_257" data-name="Group 257">
        <path id="Path_92" data-name="Path 92" d="M37.838,4.854,27.181.032a.365.365,0,0,0-.3,0L16.226,4.854a.321.321,0,0,0-.194.29V16.855a.321.321,0,0,0,.194.29l10.656,4.822a.365.365,0,0,0,.3,0l10.656-4.822a.321.321,0,0,0,.194-.29V5.144A.321.321,0,0,0,37.838,4.854ZM27.032.68,36.9,5.144l-2.86,1.294a.345.345,0,0,0-.058-.034l-9.8-4.434ZM23.4,2.334l9.851,4.458-2.018.913L21.391,3.249ZM33.486,7.4v3.375l-1.885.853V8.256Zm3.858,9.249-9.969,4.511v-11l2.378-1.076a.314.314,0,0,0,.16-.43.354.354,0,0,0-.459-.15l-2.423,1.1-.953-.431a.354.354,0,0,0-.459.15.314.314,0,0,0,.16.43l.908.411v11L16.72,16.653v-11l7.591,3.435a.361.361,0,0,0,.149.032.347.347,0,0,0,.31-.182.314.314,0,0,0-.16-.43L17.167,5.144,20.582,3.6,30.909,8.272l0,.006v3.867a.318.318,0,0,0,.161.273.364.364,0,0,0,.332.017l2.572-1.164a.321.321,0,0,0,.194-.29V7.092l3.171-1.435v11Z" transform="translate(-16.032 0.001)" fill="#5c5c5c" stroke="#5c5c5c" stroke-width="0.2"/>
      </g>
    </g>
    <g id="Group_260" data-name="Group 260" transform="translate(2.406 13.944)">
      <g id="Group_259" data-name="Group 259">
        <path id="Path_93" data-name="Path 93" d="M51.421,342.555l-2.564-1.238a.564.564,0,0,0-.49,1.015l2.564,1.238a.564.564,0,0,0,.49-1.015Z" transform="translate(-48.048 -341.261)" fill="#5c5c5c" stroke="#5c5c5c" stroke-width="0.2"/>
      </g>
    </g>
    <g id="Group_262" data-name="Group 262" transform="translate(2.409 12.15)">
      <g id="Group_261" data-name="Group 261">
        <path id="Path_94" data-name="Path 94" d="M53.824,308.121,48.9,305.746a.564.564,0,1,0-.49,1.015l4.919,2.375a.564.564,0,0,0,.49-1.015Z" transform="translate(-48.096 -305.69)" fill="#5c5c5c" stroke="#5c5c5c" stroke-width="0.2"/>
      </g>
    </g>
  </g>
</svg>
