<svg id="cart-ushop" xmlns="http://www.w3.org/2000/svg" width="22" height="26.699" viewBox="0 0 22 26.699">
  <path id="Path_112" data-name="Path 112" d="M92.029,2a4.681,4.681,0,0,0-4.676,4.676V8.4H82.972a.46.46,0,0,0-.457.416L81.041,25.76a2.709,2.709,0,0,0,2.7,2.94h16.581a2.71,2.71,0,0,0,2.7-2.94L101.542,8.816a.455.455,0,0,0-.452-.415H96.7V6.676A4.681,4.681,0,0,0,92.029,2Zm4.136,11.871.013,0a.533.533,0,0,0,.141,0l.013,0h.013a.893.893,0,1,1-.191,0Zm-7.9-7.2a3.762,3.762,0,0,1,7.524,0V8.4H88.267Zm-.553,7.2h.013l.013,0a.537.537,0,0,0,.141,0l.013,0h.013a.893.893,0,1,1-.191,0Zm12.95-4.563.008.1L102.1,25.831a1.785,1.785,0,0,1-1.771,1.954H83.736a1.793,1.793,0,0,1-1.786-1.948L83.387,9.315h3.966v3.693l-.075.023a1.807,1.807,0,1,0,1.063,0l-.075-.023v-3.7h7.524v3.7l-.075.023a1.807,1.807,0,1,0,1.063,0l-.075-.023v-3.7Z" transform="translate(-81.032 -2)" fill="#5c5c5c"/>
</svg>
