<svg xmlns="http://www.w3.org/2000/svg" xmlns:xlink="http://www.w3.org/1999/xlink" width="22" height="22" viewBox="0 0 22 22"><defs><clipPath id="a"><circle cx="11" cy="11" r="11" transform="translate(281 9)" fill="#7d3737"/></clipPath><clipPath id="b"><rect width="42" height="22" fill="none"/></clipPath><clipPath id="c"><path d="M21,11H42V22H0V0H42Z" fill="none"/></clipPath></defs><g transform="translate(-281 -9)" clip-path="url(#a)"><g transform="translate(271.222 9)" clip-path="url(#b)"><g transform="translate(-0.939 -1.968)"><g transform="translate(0.939 1.968)"><path d="M0,0V22H42V0Z" fill="#012169"/></g><path d="M0,0,42,22M42,0,0,22" transform="translate(0.939 1.968)"/><path d="M15.167-27.73-4.894-38.238-24.955-27.73l-1.878-3.935L-9.59-40.7-26.833-49.73l1.878-3.935L-4.894-43.157,15.167-53.666l1.878,3.935L-.2-40.7l17.243,9.032Z" transform="translate(26.833 53.666)" fill="#fff"/><g transform="translate(0.939 1.968)"><g clip-path="url(#c)"><g transform="translate(-0.626 -1.312)"><path d="M0,0,42,22M42,0,0,22" transform="translate(0.626 1.312)"/><path d="M24.111-11.153,3.737-21.825-16.637-11.153l-1.252-2.624,18.5-9.688-18.5-9.688,1.252-2.624L3.737-25.1,24.111-35.777l1.252,2.624-18.5,9.688,18.5,9.688Z" transform="translate(17.889 35.777)" fill="#c8102e"/></g></g></g><g transform="translate(0.939 1.968)"><path d="M21,0V22M0,11H42"/><path d="M24.5,22h-7V14.667H0V7.333H17.5V0h7V7.333H42v7.333H24.5Z" fill="#fff"/></g><g transform="translate(0.939 1.968)"><path d="M21,0V22M0,11H42"/><path d="M23.1,22H18.9V13.2H0V8.8H18.9V0h4.2V8.8H42v4.4H23.1Z" fill="#c8102e"/></g></g></g></g></svg>