<svg xmlns="http://www.w3.org/2000/svg" xmlns:xlink="http://www.w3.org/1999/xlink" width="119.726" height="119.726" viewBox="0 0 119.726 119.726">
  <defs>
    <filter id="Ellipse_24" x="0" y="0" width="119.726" height="119.726" filterUnits="userSpaceOnUse">
      <feOffset dy="-1" input="SourceAlpha"/>
      <feGaussianBlur stdDeviation="10" result="blur"/>
      <feFlood flood-opacity="0.161"/>
      <feComposite operator="in" in2="blur"/>
      <feComposite in="SourceGraphic"/>
    </filter>
  </defs>
  <g id="Group_270" data-name="Group 270" transform="translate(-128 -693)">
    <g transform="matrix(1, 0, 0, 1, 128, 693)" filter="url(#Ellipse_24)">
      <circle id="Ellipse_24-2" data-name="Ellipse 24" cx="29.863" cy="29.863" r="29.863" transform="translate(30 31)" fill="#bc1f25"/>
    </g>
    <g id="Component_42_3" data-name="Component 42 – 3" transform="translate(177 742)">
      <path id="Path_77" data-name="Path 77" d="M-2017.957-576.606a2.369,2.369,0,0,0-2.33,1.995,1.6,1.6,0,0,1,1.445,1.595V-573a1.6,1.6,0,0,1-1.6,1.6h-7.809a2.023,2.023,0,0,0-2.021,2.021,2.023,2.023,0,0,0,2.021,2.021h4.176a5.209,5.209,0,0,1,3.706,1.54,5.21,5.21,0,0,1,1.539,3.706,5.21,5.21,0,0,1-1.539,3.706,5.21,5.21,0,0,1-3.706,1.539h-7.809a1.6,1.6,0,0,1-1.6-1.6v-.019a1.6,1.6,0,0,1,1.6-1.6h7.809a2.024,2.024,0,0,0,2.021-2.021,2.024,2.024,0,0,0-2.021-2.021h-4.176a5.209,5.209,0,0,1-3.706-1.539,5.209,5.209,0,0,1-1.539-3.706,5.208,5.208,0,0,1,1.539-3.706l.057-.055v-1.11a2.369,2.369,0,0,0-2.362-2.362h0a2.369,2.369,0,0,0-2.362,2.362v12.217a10.547,10.547,0,0,0,10.516,10.516h0a10.547,10.547,0,0,0,10.517-10.516v-12.217A2.369,2.369,0,0,0-2017.957-576.606Z" transform="translate(2036.628 576.606)" fill="#fff"/>
    </g>
  </g>
</svg>
