<svg xmlns="http://www.w3.org/2000/svg" width="22.344" height="22.2" viewBox="0 0 22.344 22.2">
  <g id="ordershop" transform="translate(0.212 0.1)">
    <path id="Path_95" data-name="Path 95" d="M526.336,31.806a1.741,1.741,0,0,0,0,2.46l7.449,7.449a1.741,1.741,0,0,0,2.46,0l10.628-10.646a1.748,1.748,0,0,0,.458-1.652l-1.472-5.96a1.766,1.766,0,0,0-.118-.327l-.072-.15,2.035-2.035a.423.423,0,0,0,0-.6h0a.422.422,0,0,0-.6,0l-2.035,2.035-.15-.072a1.75,1.75,0,0,0-.328-.118l-5.958-1.472a1.725,1.725,0,0,0-.418-.051,1.749,1.749,0,0,0-1.234.509Zm11.877-10.293a.889.889,0,0,1,.215.026l6,1.482-2,2-.15-.072a1.739,1.739,0,1,0,.82.82l-.072-.15,2-2,1.482,6a.9.9,0,0,1-.235.849L535.647,41.117a.9.9,0,0,1-1.265,0l-7.449-7.449a.9.9,0,0,1,0-1.265l10.646-10.628A.9.9,0,0,1,538.213,21.514Zm4.213,5a.888.888,0,0,1-.262.632h0a.9.9,0,1,1,.262-.632Z" transform="translate(-525.827 -20.223)" fill="#5c5c5c" stroke="#5c5c5c" stroke-width="0.2"/>
    <path id="Path_96" data-name="Path 96" d="M686.574,176.491a1.691,1.691,0,1,0,0,2.391A1.685,1.685,0,0,0,686.574,176.491Zm-.581,1.81a.87.87,0,1,1,.254-.615A.863.863,0,0,1,685.993,178.3Z" transform="translate(-676.201 -168.608)" fill="#5c5c5c" stroke="#5c5c5c" stroke-width="0.2"/>
    <path id="Path_97" data-name="Path 97" d="M705.111,314.126a1.69,1.69,0,1,0,1.2.494A1.685,1.685,0,0,0,705.111,314.126Zm.615,2.3h0a.869.869,0,1,1,0-1.229A.866.866,0,0,1,705.725,316.43Z" transform="translate(-694.997 -300.185)" fill="#5c5c5c" stroke="#5c5c5c" stroke-width="0.2"/>
    <path id="Path_98" data-name="Path 98" d="M633.1,264.806l8.145-.9a.411.411,0,0,0,.363-.453h0a.411.411,0,0,0-.407-.365l-.046,0-8.145.905a.411.411,0,0,0,.045.819Z" transform="translate(-627.504 -251.595)" fill="#5c5c5c" stroke="#5c5c5c" stroke-width="0.2"/>
  </g>
</svg>
