<svg xmlns="http://www.w3.org/2000/svg" width="22.203" height="22.2" viewBox="0 0 22.203 22.2">
  <g id="phone" transform="translate(0.1 0.1)">
    <g id="Group_354" data-name="Group 354">
      <path id="Path_110" data-name="Path 110" d="M74.841,37.294a15.782,15.782,0,0,0,2.023-2.089l.007-.008a1.8,1.8,0,0,0-.054-2.436c-1.036-1.118-2.079-2.163-3.1-3.109a1.859,1.859,0,0,0-2.56.088c-.426.4-.877.832-1.306,1.3a.638.638,0,0,1-.948.149c-.275-.206-.56-.41-.835-.607a21.832,21.832,0,0,1-1.945-1.508,11.66,11.66,0,0,1-2.9-3.784l-.047-.1.073-.077c.182-.192.366-.381.545-.564.406-.416.789-.809,1.15-1.232l.036-.041a1.9,1.9,0,0,0,.449-1.32,1.875,1.875,0,0,0-.558-1.272c-.937-.972-1.9-1.938-2.863-2.874a1.888,1.888,0,0,0-2.571-.144c-.229.223-.472.441-.706.653a5.614,5.614,0,0,0-2.261,3.369v.871c.078.288.152.582.222.866a18.338,18.338,0,0,0,.55,1.91,20.025,20.025,0,0,0,3.907,6.246,20.86,20.86,0,0,0,7.235,5.424A18.944,18.944,0,0,0,71.783,38.1a3.808,3.808,0,0,0,1.319.081A8.717,8.717,0,0,0,74.841,37.294Zm-2.447-.039a2.867,2.867,0,0,1-.917-.151,15.985,15.985,0,0,1-6.445-3.173,21.38,21.38,0,0,1-6.492-7.91,8.913,8.913,0,0,1-1.069-3.972,2.486,2.486,0,0,1,.928-2.1c.244-.234.486-.479.721-.717.187-.19.381-.385.575-.575a1.227,1.227,0,0,1,.184-.2,1.13,1.13,0,0,1,.871-.275,1.16,1.16,0,0,1,.792.454c.824.814,1.654,1.647,2.466,2.476a1.342,1.342,0,0,1,.486.927,1.387,1.387,0,0,1-.513.948l-.218.218c-.427.429-.868.872-1.307,1.3l-.017.014a.675.675,0,0,0-.184.877,25.4,25.4,0,0,0,1.664,2.683,15.027,15.027,0,0,0,4.015,3.621c.231.143.478.272.716.4.107.056.213.111.319.169l.008,0a.841.841,0,0,0,1.087-.166l.006-.006c.511-.519,1.032-1.04,1.549-1.55a1.128,1.128,0,0,1,.229-.236,1.032,1.032,0,0,1,.812-.2,1.075,1.075,0,0,1,.7.456c.829.827,1.67,1.67,2.5,2.505a1.366,1.366,0,0,1,.5.927,1.324,1.324,0,0,1-.467.909c-.519.535-1.05,1.075-1.579,1.607l-.008.007A2.909,2.909,0,0,1,72.394,37.255Z" transform="translate(-56.463 -16.201)" fill="#5c5c5c" stroke="#5c5c5c" stroke-width="0.2"/>
      <path id="Path_58" data-name="Path 58" d="M321.958,0c.4.113.81.206,1.2.341a8.178,8.178,0,0,1,5.622,5.879c.035.131.092.262.139.4.111.352-.354.576-.605.447a.721.721,0,0,1-.309-.462,7.612,7.612,0,0,0-6.143-5.75A.741.741,0,0,1,321.4.537c-.131-.241.073-.406.276-.537Z" transform="translate(-306.937)" fill="#5c5c5c" stroke="#5c5c5c" stroke-width="0.2"/>
      <path id="Path_59" data-name="Path 59" d="M290.812,81.25a.375.375,0,0,1-.5-.282,4.4,4.4,0,0,0-.739-1.669,4.324,4.324,0,0,0-2.631-1.657c-.241-.05-.536-.067-.537-.417a.417.417,0,0,1,.491-.434,5.129,5.129,0,0,1,4.268,4,.331.331,0,0,1,0,.067C291.182,80.88,291.241,81.151,290.812,81.25Z" transform="translate(-273.696 -72.205)" fill="#5c5c5c" stroke="#5c5c5c" stroke-width="0.2"/>
    </g>
  </g>
</svg>
