<svg id="pound" xmlns="http://www.w3.org/2000/svg" width="22" height="22" viewBox="0 0 22 22">
  <path id="Path_56" data-name="Path 56" d="M182.961,146.116h-1.128a1.889,1.889,0,0,0-.416-.93,1.5,1.5,0,0,0-1.641-.432,1.384,1.384,0,0,0-.9,1.311,5.511,5.511,0,0,0,.28,1.624h1.775v.845h-1.584a2.544,2.544,0,0,1-.519,2.2c-.1.154-.228.292-.373.475a4.033,4.033,0,0,1,2.374.144,2.391,2.391,0,0,0,1.821-.154.553.553,0,0,1,.089-.026l.316.94a2.983,2.983,0,0,1-2.148.25,9.338,9.338,0,0,0-1.29-.34,3.021,3.021,0,0,0-2.089.522l-.392-.974a2.623,2.623,0,0,0,1.227-2.948h-1.1v-.844h.858c-.069-.266-.13-.5-.192-.743a2.886,2.886,0,0,1-.037-1.237,2.281,2.281,0,0,1,1.988-1.8,2.985,2.985,0,0,1,1.947.309A2.316,2.316,0,0,1,182.961,146.116Z" transform="translate(-169.333 -137.787)" fill="#5c5c5c" stroke="#5c5c5c" stroke-width="0.2"/>
  <g id="Path_118" data-name="Path 118" fill="none">
    <path d="M11,0A11,11,0,1,1,0,11,11,11,0,0,1,11,0Z" stroke="none"/>
    <path d="M 11 1 C 5.485979080200195 1 1 5.485979080200195 1 11 C 1 16.51401901245117 5.485979080200195 21 11 21 C 16.51401901245117 21 21 16.51401901245117 21 11 C 21 5.485979080200195 16.51401901245117 1 11 1 M 11 0 C 17.07513046264648 0 22 4.924869537353516 22 11 C 22 17.07513046264648 17.07513046264648 22 11 22 C 4.924869537353516 22 0 17.07513046264648 0 11 C 0 4.924869537353516 4.924869537353516 0 11 0 Z" stroke="none" fill="#5c5c5c"/>
  </g>
</svg>
