<svg xmlns="http://www.w3.org/2000/svg" width="21" height="25" viewBox="0 0 21 25"><defs><style>.a{fill:#fff;}</style></defs><path class="a" d="M-2017.987-576.606a2.363,2.363,0,0,0-2.327,1.987,1.6,1.6,0,0,1,1.443,1.589v.019a1.6,1.6,0,0,1-1.6,1.6h-7.8a2.018,2.018,0,0,0-2.018,2.013,2.018,2.018,0,0,0,2.018,2.013h4.17a5.207,5.207,0,0,1,3.7,1.534,5.184,5.184,0,0,1,1.537,3.692,5.184,5.184,0,0,1-1.537,3.692,5.207,5.207,0,0,1-3.7,1.533h-7.8a1.6,1.6,0,0,1-1.6-1.6v-.019a1.6,1.6,0,0,1,1.6-1.6h7.8a2.018,2.018,0,0,0,2.018-2.013,2.018,2.018,0,0,0-2.018-2.014h-4.17a5.207,5.207,0,0,1-3.7-1.534,5.183,5.183,0,0,1-1.537-3.692,5.182,5.182,0,0,1,1.537-3.692l.057-.054v-1.106a2.363,2.363,0,0,0-2.358-2.353h0a2.363,2.363,0,0,0-2.359,2.353v12.17a10.519,10.519,0,0,0,10.5,10.476h0a10.519,10.519,0,0,0,10.5-10.476v-12.17A2.363,2.363,0,0,0-2017.987-576.606Z" transform="translate(2036.628 576.606)"/></svg>