<svg xmlns="http://www.w3.org/2000/svg" width="22.231" height="22.2" viewBox="0 0 22.231 22.2">
  <g id="search" transform="translate(0.1 0.1)">
    <path id="Path_111" data-name="Path 111" d="M21.485,12.291,15.657,6.463A9.2,9.2,0,0,0,18.079.236,9.236,9.236,0,1,0-.393.236,9.246,9.246,0,0,0,8.843,9.472,9.2,9.2,0,0,0,15.07,7.05L20.9,12.878a.415.415,0,0,0,.587-.587ZM.437.236a8.406,8.406,0,1,1,16.811,0A8.379,8.379,0,0,1,14.8,6.159l-.019.017-.017.019A8.379,8.379,0,0,1,8.843,8.642,8.415,8.415,0,0,1,.437.236Z" transform="translate(0.393 9)" fill="#5c5c5c" stroke="#5c5c5c" stroke-width="0.2"/>
  </g>
</svg>
