<?xml version="1.0" encoding="utf-8"?>
<!-- Generator: Adobe Illustrator 24.1.2, SVG Export Plug-In . SVG Version: 6.00 Build 0)  -->
<svg version="1.1" id="Layer_1" xmlns="http://www.w3.org/2000/svg" xmlns:xlink="http://www.w3.org/1999/xlink" x="0px" y="0px"
	 viewBox="0 0 512 512" style="enable-background:new 0 0 512 512;" xml:space="preserve">
<path d="M506.66,256.29c-1.05,140.54-113.2,250.76-251.41,250.28C114.99,506.08,4.93,393.58,5.34,255.46
	C5.76,115.16,118.21,5.09,256.33,5.43C396.66,5.78,506.14,118.22,506.66,256.29z M255.86,47C140.13,47.15,46.82,140.95,46.92,257.06
	c0.09,114.71,94.37,208.04,210.05,207.93c114.95-0.11,208.06-94.39,207.94-210.55C464.78,140.62,370.3,46.86,255.86,47z"/>
<g>
	<path d="M346.42,172.96h-75.48v50.11l52.13-27.86v26.14l-52.13,27.86v32.21l52.13-27.86v26.14l-52.13,27.86v66.61h-30.19V323.6
		l-51.82,27.7v-26.14l51.82-27.7v-32.21l-51.82,27.7V266.8l51.82-27.7v-66.14h-75.17v-26.92h180.83V172.96z"/>
</g>
</svg>
