<svg xmlns="http://www.w3.org/2000/svg" width="19.29" height="22.2" viewBox="0 0 19.29 22.2">
  <g id="user" transform="translate(0.1 0.1)">
    <path id="Path_108" data-name="Path 108" d="M144.722,8.077a5.385,5.385,0,0,0-9.191,3.807,5.385,5.385,0,0,0,10.769,0A5.211,5.211,0,0,0,144.722,8.077Zm-.554,7.06a4.6,4.6,0,0,1-6.505,0,4.394,4.394,0,0,1-1.348-3.253,4.395,4.395,0,0,1,1.348-3.253,4.6,4.6,0,0,1,6.505,0,4.4,4.4,0,0,1,1.348,3.253A4.4,4.4,0,0,1,144.168,15.137Z" transform="translate(-131.52 -6.5)" fill="#5c5c5c" stroke="#5c5c5c" stroke-width="0.2"/>
    <path id="Path_109" data-name="Path 109" d="M67.543,260.285h0a13.75,13.75,0,0,0-.187-1.459A11.442,11.442,0,0,0,67,257.365a7.106,7.106,0,0,0-.592-1.342,4.973,4.973,0,0,0-.876-1.143,3.8,3.8,0,0,0-1.238-.777,4.316,4.316,0,0,0-1.594-.287c-.148,0-.319.056-.76.343-.28.182-.6.392-.965.622a5.806,5.806,0,0,1-1.314.581,5.135,5.135,0,0,1-3.23,0,5.789,5.789,0,0,1-1.313-.581c-.36-.23-.685-.439-.966-.622-.441-.287-.612-.343-.76-.343a4.311,4.311,0,0,0-1.594.288,3.8,3.8,0,0,0-1.238.777,4.976,4.976,0,0,0-.876,1.142,7.123,7.123,0,0,0-.591,1.342,11.477,11.477,0,0,0-.357,1.461,13.64,13.64,0,0,0-.187,1.459c-.031.443-.046.905-.046,1.373a3.631,3.631,0,0,0,1.071,2.748,3.9,3.9,0,0,0,2.792,1.011H63.726a3.9,3.9,0,0,0,2.792-1.011,3.629,3.629,0,0,0,1.071-2.748C67.59,261.189,67.574,260.727,67.543,260.285Zm-1.564,3.553a3.1,3.1,0,0,1-2.252.8H52.363a3.1,3.1,0,0,1-2.252-.8,2.841,2.841,0,0,1-.827-2.18c0-.451.015-.895.044-1.319a12.876,12.876,0,0,1,.177-1.375,10.676,10.676,0,0,1,.332-1.36,6.338,6.338,0,0,1,.526-1.194,4.208,4.208,0,0,1,.736-.964,3.016,3.016,0,0,1,.985-.614,3.481,3.481,0,0,1,1.191-.231l.079,0,.07.037c.079.042.179.1.3.18.295.192.622.4.972.626a6.556,6.556,0,0,0,1.494.666,5.918,5.918,0,0,0,3.713,0,6.57,6.57,0,0,0,1.495-.666c.377-.241.694-.446.971-.626.12-.078.22-.138.3-.18l.07-.037.079,0a3.484,3.484,0,0,1,1.192.231,3.019,3.019,0,0,1,.985.614,4.2,4.2,0,0,1,.736.964,6.315,6.315,0,0,1,.527,1.193,10.662,10.662,0,0,1,.332,1.36,12.979,12.979,0,0,1,.177,1.376v.011c.029.419.044.859.044,1.308A2.842,2.842,0,0,1,65.978,263.838Z" transform="translate(-48.5 -243.417)" fill="#5c5c5c" stroke="#5c5c5c" stroke-width="0.2"/>
  </g>
</svg>
