<svg xmlns="http://www.w3.org/2000/svg" width="22.212" height="22.162" viewBox="0 0 22.212 22.162">
  <g id="uuruu" transform="translate(0.106 0.1)">
    <g id="Group_266" data-name="Group 266" transform="translate(0 12.078)">
      <path id="Path_99" data-name="Path 99" d="M49.2,312.1a.412.412,0,1,0,.418.412A.415.415,0,0,0,49.2,312.1Z" transform="translate(-47.107 -310.457)" fill="#5c5c5c" stroke="#5c5c5c" stroke-width="0.2"/>
      <path id="Path_100" data-name="Path 100" d="M30.248,277.5,26.2,278.834a1.58,1.58,0,0,0,.028-.292,1.686,1.686,0,0,0-1.719-1.647H21.724a.445.445,0,0,1-.211-.053l-2.27-1.224a3.112,3.112,0,0,0-1.475-.371H14.722a1.288,1.288,0,0,0-1.215-.823H10.929a.421.421,0,0,0-.43.412v7.413a.421.421,0,0,0,.43.412h2.578a1.291,1.291,0,0,0,1.2-.793,4.05,4.05,0,0,1,1.4.4l2.247,1.292a5.687,5.687,0,0,0,5.085.278l8.02-3.384a1.571,1.571,0,0,0,.819-2.267A1.7,1.7,0,0,0,30.248,277.5Zm-16.312,3.927a.422.422,0,0,1-.43.41H11.358v-6.589h2.148a.422.422,0,0,1,.43.412Zm17.2-1.736-.014.005-8.033,3.39a4.795,4.795,0,0,1-4.289-.234l-2.247-1.292a4.888,4.888,0,0,0-1.759-.513v-4.977h2.972a2.223,2.223,0,0,1,1.054.265l2.27,1.224a1.335,1.335,0,0,0,.632.159h2.783a.824.824,0,1,1,0,1.647H20.139a.412.412,0,1,0,0,.823h4.368a1.775,1.775,0,0,0,.806-.193l5.225-1.721a.834.834,0,0,1,.991.3A.762.762,0,0,1,31.138,279.691Z" transform="translate(-10.499 -274.424)" fill="#5c5c5c" stroke="#5c5c5c" stroke-width="0.2"/>
    </g>
    <g id="Group_267" data-name="Group 267" transform="translate(0)">
      <path id="Path_101" data-name="Path 101" d="M443.5,181.73a.412.412,0,1,0-.418-.412A.415.415,0,0,0,443.5,181.73Z" transform="translate(-423.587 -173.493)" fill="#5c5c5c" stroke="#5c5c5c" stroke-width="0.2"/>
      <path id="Path_102" data-name="Path 102" d="M12.75,18.158,16.8,16.824a1.579,1.579,0,0,0-.028.292,1.686,1.686,0,0,0,1.719,1.647h2.783a.444.444,0,0,1,.211.053l2.27,1.224a3.113,3.113,0,0,0,1.475.371h3.046a1.288,1.288,0,0,0,1.215.823H32.07a.421.421,0,0,0,.43-.412V13.409A.421.421,0,0,0,32.07,13H29.491a1.291,1.291,0,0,0-1.2.793,4.049,4.049,0,0,1-1.4-.4L24.638,12.1a5.688,5.688,0,0,0-5.085-.278L11.533,15.2a1.571,1.571,0,0,0-.819,2.267A1.7,1.7,0,0,0,12.75,18.158Zm16.312-3.927a.422.422,0,0,1,.43-.41H31.64V20.41H29.491a.422.422,0,0,1-.43-.412Zm-17.2,1.736.014-.005,8.033-3.39A4.8,4.8,0,0,1,24.2,12.8L26.444,14.1a4.89,4.89,0,0,0,1.759.513v4.977H25.23a2.223,2.223,0,0,1-1.054-.265L21.907,18.1a1.335,1.335,0,0,0-.632-.159H18.492a.824.824,0,1,1,0-1.647H22.86a.412.412,0,1,0,0-.824H18.492a1.775,1.775,0,0,0-.806.193l-5.225,1.721a.834.834,0,0,1-.991-.3A.762.762,0,0,1,11.86,15.967Z" transform="translate(-10.499 -11.35)" fill="#5c5c5c" stroke="#5c5c5c" stroke-width="0.2"/>
    </g>
  </g>
</svg>
