<svg xmlns="http://www.w3.org/2000/svg" width="107.681" height="23.645" viewBox="0 0 107.681 23.645">
  <g id="Group_771" data-name="Group 771" transform="translate(-26.787 -18.33)">
    <g id="Group_770" data-name="Group 770" transform="translate(52.08 25.503)">
      <path id="Path_210" data-name="Path 210" d="M644.385,563.119v-5.171h2.137v5.091c0,1.755.765,2.48,2.058,2.48s2.058-.725,2.058-2.48v-5.091h2.111v5.171c0,2.717-1.557,4.221-4.182,4.221S644.385,565.836,644.385,563.119Z" transform="translate(-644.385 -557.882)" fill="#fff"/>
      <path id="Path_211" data-name="Path 211" d="M711.483,557.948v9.233h-1.754l-4.6-5.606v5.606h-2.111v-9.233h1.768l4.59,5.606v-5.606Z" transform="translate(-692.541 -557.882)" fill="#fff"/>
      <path id="Path_212" data-name="Path 212" d="M762.234,563.119v-5.171h2.137v5.091c0,1.755.765,2.48,2.058,2.48s2.058-.725,2.058-2.48v-5.091h2.11v5.171c0,2.717-1.556,4.221-4.181,4.221S762.234,565.836,762.234,563.119Z" transform="translate(-741.182 -557.882)" fill="#fff"/>
      <path id="Path_213" data-name="Path 213" d="M826.745,567.181l-1.781-2.572H823v2.572h-2.137v-9.233h4c2.467,0,4.01,1.279,4.01,3.35a3,3,0,0,1-1.9,2.915l2.071,2.968Zm-2-7.492H823v3.218h1.741c1.306,0,1.965-.607,1.965-1.609S826.046,559.689,824.74,559.689Z" transform="translate(-789.336 -557.882)" fill="#fff"/>
      <path id="Path_214" data-name="Path 214" d="M872.77,565.69l.3-.5a4.392,4.392,0,0,0,3.047,1.161c1.847,0,2.664-.8,2.664-1.807,0-2.77-5.764-1.108-5.764-4.511,0-1.306,1-2.453,3.271-2.453a4.955,4.955,0,0,1,2.783.831l-.251.541a4.563,4.563,0,0,0-2.533-.778c-1.794,0-2.6.831-2.6,1.847,0,2.77,5.764,1.134,5.764,4.485,0,1.306-1.042,2.44-3.324,2.44A4.733,4.733,0,0,1,872.77,565.69Z" transform="translate(-831.972 -557.578)" fill="#fff"/>
      <path id="Path_215" data-name="Path 215" d="M930.5,557.948v9.233h-.673v-4.392h-6.173v4.392h-.673v-9.233h.673V562.2h6.173v-4.247Z" transform="translate(-873.214 -557.882)" fill="#fff"/>
      <path id="Path_216" data-name="Path 216" d="M978.139,562.261a4.8,4.8,0,1,1,4.8,4.683A4.623,4.623,0,0,1,978.139,562.261Zm8.917,0a4.123,4.123,0,1,0-4.116,4.063A3.988,3.988,0,0,0,987.056,562.261Z" transform="translate(-918.518 -557.578)" fill="#fff"/>
      <path id="Path_217" data-name="Path 217" d="M1051.994,561.061c0,1.939-1.4,3.1-3.72,3.1h-2.638v3.021h-.672v-9.233h3.311C1050.6,557.948,1051.994,559.109,1051.994,561.061Zm-.686,0c0-1.6-1.055-2.506-3.034-2.506h-2.638v5h2.638C1050.252,563.554,1051.308,562.644,1051.308,561.061Z" transform="translate(-973.404 -557.882)" fill="#fff"/>
    </g>
    <path id="Path_218" data-name="Path 218" d="M1091.261,597.167a1.279,1.279,0,0,1,2.559,0,1.279,1.279,0,1,1-2.559,0Z" transform="translate(-959.351 -563.552)" fill="#ab0b1b"/>
    <path id="Path_219" data-name="Path 219" d="M520.39,517.426a2.232,2.232,0,0,0-2.2,1.88,1.51,1.51,0,0,1,1.362,1.5v.018a1.51,1.51,0,0,1-1.51,1.51h-7.358a1.9,1.9,0,1,0,0,3.809h3.935a4.942,4.942,0,0,1,0,9.884h-7.358a1.51,1.51,0,0,1-1.51-1.51V534.5a1.51,1.51,0,0,1,1.51-1.51h7.358a1.9,1.9,0,0,0,0-3.809h-3.935a4.938,4.938,0,0,1-3.492-8.434l.054-.051v-1.046a2.232,2.232,0,0,0-2.226-2.226h0a2.232,2.232,0,0,0-2.226,2.226v11.511a9.938,9.938,0,0,0,9.909,9.909h0a9.938,9.938,0,0,0,9.909-9.909V519.652A2.232,2.232,0,0,0,520.39,517.426Z" transform="translate(-476.011 -499.096)" fill="#ab0b1b"/>
  </g>
</svg>
